<?xml version="1.0" encoding="utf-8"?>
<!-- Generator: Adobe Illustrator 22.1.0, SVG Export Plug-In . SVG Version: 6.00 Build 0)  -->
<svg version="1.1" id="OBJECTS" xmlns="http://www.w3.org/2000/svg" xmlns:xlink="http://www.w3.org/1999/xlink" x="0px" y="0px"
	 viewBox="0 0 500 500" style="enable-background:new 0 0 500 500;" xml:space="preserve">
<style type="text/css">
	.st0{fill:#D6953E;}
	.st1{fill:#B57B35;}
	.st2{fill:#285C77;}
	.st3{fill:#868689;}
	.st4{fill:#6D6D6D;}
	.st5{fill:#C5C4D7;}
	.st6{fill:#A5A5AD;}
	.st7{fill:#172F47;}
	.st8{fill:#202739;}
	.st9{fill:#A7A6BB;}
	.st10{fill:#FEFEFE;}
	.st11{fill:#FD7C3A;}
	.st12{fill:#004DB9;}
	.st13{fill:#D3D3D3;}
	.st14{fill:#ADADAD;}
	.st15{fill:#897762;}
	.st16{fill:#331D0B;}
	.st17{fill:#635140;}
	.st18{fill:#EDAC7C;}
	.st19{fill:#F7A588;}
	.st20{fill:#CF9166;}
	.st21{fill:#B57223;}
	.st22{fill:#39748E;}
	.st23{fill:#77BFD8;}
</style>
<g>
	<g>
		<polygon class="st0" points="115.1,274.5 150.6,190.9 150.6,174.4 108.1,274.5 		"/>
		<polygon class="st1" points="145.5,189.9 150.6,190.9 150.6,174.4 144.5,188.8 143.4,191.3 		"/>
	</g>
	<g>
		<path class="st2" d="M307.3,90.4l-14.1,13.1l4.9,7.4c1,1.5,1.1,3.4,0.3,5.1c0,0,0,0,0,0.1c-0.8,1.6-2.3,2.8-4.1,3.1l-8.8,1.2
			l-0.7,19.2l8.7,1.8c1.8,0.4,3.2,1.7,3.8,3.3c0,0,0,0,0,0.1c0.6,1.7,0.4,3.6-0.7,5l-5.4,7l6.5,7.1l6.5,7.1l7.4-4.9
			c1.5-1,3.4-1.1,5.1-0.3c0,0,0,0,0.1,0c1.6,0.8,2.8,2.3,3.1,4.1l1.2,8.8l19.2,0.7l1.8-8.7c0.4-1.8,1.7-3.2,3.3-3.8c0,0,0,0,0.1,0
			c1.7-0.6,3.6-0.4,5,0.7l7,5.4l14.1-13.1l-4.9-7.4c-1-1.5-1.1-3.4-0.3-5.1c0,0,0,0,0-0.1c0.8-1.6,2.3-2.8,4.1-3.1l8.8-1.2l0.7-19.2
			l-8.7-1.8c-1.8-0.4-3.2-1.7-3.8-3.3c0,0,0,0,0-0.1c-0.6-1.7-0.4-3.6,0.7-5l5.4-7l-6.5-7.1l-6.5-7.1l-7.4,4.9
			c-1.5,1-3.4,1.1-5.1,0.3c0,0,0,0-0.1,0c-1.6-0.8-2.8-2.3-3.1-4.1l-1.2-8.8L324.5,84l-1.8,8.7c-0.4,1.8-1.7,3.2-3.3,3.8
			c0,0,0,0-0.1,0c-1.7,0.6-3.6,0.4-5-0.7L307.3,90.4z M353.2,112.2c10.7,11.5,10,29.5-1.5,40.1c-11.5,10.7-29.5,10-40.1-1.5
			c-10.7-11.5-10-29.5,1.5-40.1C324.5,100.1,342.5,100.7,353.2,112.2z"/>
		<path class="st0" d="M394.9,112.7l-6.2,5.8l2.1,3.3c0.4,0.7,0.5,1.5,0.1,2.2c0,0,0,0,0,0c-0.3,0.7-1,1.2-1.8,1.3l-3.9,0.5
			l-0.3,8.5l3.8,0.8c0.8,0.2,1.4,0.7,1.7,1.5c0,0,0,0,0,0c0.3,0.7,0.2,1.6-0.3,2.2l-2.4,3.1l2.9,3.1l2.9,3.1l3.3-2.1
			c0.7-0.4,1.5-0.5,2.2-0.1c0,0,0,0,0,0c0.7,0.3,1.2,1,1.3,1.8l0.5,3.9l8.5,0.3l0.8-3.8c0.2-0.8,0.7-1.4,1.5-1.7c0,0,0,0,0,0
			c0.7-0.3,1.6-0.2,2.2,0.3l3.1,2.4l6.2-5.8l-2.1-3.3c-0.4-0.7-0.5-1.5-0.1-2.2c0,0,0,0,0,0c0.3-0.7,1-1.2,1.8-1.3l3.9-0.5l0.3-8.5
			l-3.8-0.8c-0.8-0.2-1.4-0.7-1.7-1.5c0,0,0,0,0,0c-0.3-0.7-0.2-1.6,0.3-2.2l2.4-3.1l-2.9-3.1l-2.9-3.1l-3.3,2.1
			c-0.7,0.4-1.5,0.5-2.2,0.1c0,0,0,0,0,0c-0.7-0.3-1.2-1-1.3-1.8l-0.5-3.9l-8.5-0.3l-0.8,3.8c-0.2,0.8-0.7,1.4-1.5,1.7c0,0,0,0,0,0
			c-0.7,0.3-1.6,0.2-2.2-0.3L394.9,112.7z M415.2,122.4c4.7,5.1,4.4,13-0.7,17.7c-5.1,4.7-13,4.4-17.7-0.7c-4.7-5.1-4.4-13,0.7-17.7
			C402.6,117,410.5,117.3,415.2,122.4z"/>
		<path class="st0" d="M246.5,62.5l-9.2,8.5l3.2,4.8c0.6,1,0.7,2.2,0.2,3.3c0,0,0,0,0,0c-0.5,1.1-1.5,1.8-2.6,2l-5.7,0.8l-0.5,12.5
			l5.6,1.2c1.2,0.2,2.1,1.1,2.5,2.2c0,0,0,0,0,0c0.4,1.1,0.3,2.3-0.5,3.3l-3.5,4.6l4.3,4.6l4.3,4.6l4.8-3.2c1-0.6,2.2-0.7,3.3-0.2
			c0,0,0,0,0,0c1.1,0.5,1.8,1.5,2,2.6l0.8,5.7l12.5,0.5l1.2-5.6c0.2-1.2,1.1-2.1,2.2-2.5c0,0,0,0,0,0c1.1-0.4,2.3-0.3,3.3,0.5
			l4.6,3.5l9.2-8.5l-3.2-4.8c-0.6-1-0.7-2.2-0.2-3.3c0,0,0,0,0,0c0.5-1.1,1.5-1.8,2.6-2l5.7-0.8l0.5-12.5l-5.6-1.2
			c-1.2-0.2-2.1-1.1-2.5-2.2c0,0,0,0,0,0c-0.4-1.1-0.3-2.3,0.5-3.3l3.5-4.6l-4.3-4.6l-4.3-4.6l-4.8,3.2c-1,0.6-2.2,0.7-3.3,0.2
			c0,0,0,0,0,0c-1.1-0.5-1.8-1.5-2-2.6l-0.8-5.7l-12.5-0.5l-1.2,5.6c-0.2,1.2-1.1,2.1-2.2,2.5c0,0,0,0,0,0c-1.1,0.4-2.3,0.3-3.3-0.5
			L246.5,62.5z M276.3,76.7c6.9,7.5,6.5,19.1-1,26.1c-7.5,6.9-19.1,6.5-26.1-1c-6.9-7.5-6.5-19.1,1-26.1
			C257.7,68.8,269.4,69.2,276.3,76.7z"/>
	</g>
	<g>
		<g>
			<path id="XMLID_206_" class="st3" d="M89.3,283.1h321.5c2.4,0,4.3-1.9,4.3-4.3l0,0c0-2.4-1.9-4.3-4.3-4.3H89.3
				c-2.4,0-4.3,1.9-4.3,4.3l0,0C84.9,281.2,86.9,283.1,89.3,283.1z"/>
			<path class="st4" d="M85.3,280.5c0.7,1.5,2.2,2.6,4,2.6h321.5c1.8,0,3.3-1.1,4-2.6H85.3z"/>
		</g>
		
			<rect id="XMLID_42_" x="184" y="269.9" transform="matrix(-1 -1.224647e-16 1.224647e-16 -1 487.3196 544.3535)" class="st5" width="119.3" height="4.5"/>
		
			<rect id="XMLID_270_" x="196.1" y="269.9" transform="matrix(-1 -1.224647e-16 1.224647e-16 -1 511.5421 544.3535)" class="st6" width="119.3" height="4.5"/>
	</g>
	<g>
		<path id="XMLID_520_" class="st7" d="M339.2,242.6H161.6c-3.9,0-7-3.1-7-7V129.8c0-3.9,3.1-7,7-7h177.6c3.9,0,7,3.1,7,7v105.8
			C346.2,239.4,343.1,242.6,339.2,242.6z"/>
		<rect x="249.1" y="140.7" class="st8" width="2.6" height="83.8"/>
		<path class="st9" d="M346.2,135.3v-6.1c0-3.6-2.9-6.5-6.5-6.5H161.1c-3.6,0-6.5,2.9-6.5,6.5v6.1H346.2z"/>
		<g>
			<g>
				<rect x="265.6" y="184.2" class="st10" width="26.3" height="4.5"/>
				<rect x="265.6" y="192.9" class="st11" width="32.8" height="4.5"/>
				<rect x="301.7" y="192.9" class="st10" width="16.2" height="4.5"/>
				<rect x="265.6" y="201.7" class="st10" width="12.9" height="4.5"/>
				<rect x="283" y="201.7" class="st10" width="48.5" height="4.5"/>
				<rect x="298.1" y="184.2" class="st12" width="15.1" height="4.5"/>
			</g>
			<g>
				<rect x="265.6" y="143" class="st10" width="26.3" height="4.5"/>
				<rect x="265.6" y="151.8" class="st11" width="32.8" height="4.5"/>
				<rect x="301.7" y="151.8" class="st10" width="16.2" height="4.5"/>
				<rect x="265.6" y="160.6" class="st10" width="12.9" height="4.5"/>
				<rect x="283" y="160.6" class="st10" width="48.5" height="4.5"/>
				<rect x="298.1" y="143" class="st12" width="15.1" height="4.5"/>
			</g>
		</g>
		<g>
			<g>
				<rect x="176" y="184.2" class="st10" width="26.3" height="4.5"/>
				<rect x="176" y="192.9" class="st11" width="32.8" height="4.5"/>
				<rect x="212.2" y="192.9" class="st10" width="16.2" height="4.5"/>
				<rect x="176" y="201.7" class="st10" width="12.9" height="4.5"/>
				<rect x="193.4" y="201.7" class="st10" width="48.5" height="4.5"/>
				<rect x="208.5" y="184.2" class="st12" width="15.1" height="4.5"/>
			</g>
			<g>
				<rect x="176" y="143" class="st10" width="26.3" height="4.5"/>
				<rect x="176" y="151.8" class="st11" width="32.8" height="4.5"/>
				<rect x="212.2" y="151.8" class="st10" width="16.2" height="4.5"/>
				<rect x="176" y="160.6" class="st10" width="12.9" height="4.5"/>
				<rect x="193.4" y="160.6" class="st10" width="48.5" height="4.5"/>
				<rect x="208.5" y="143" class="st12" width="15.1" height="4.5"/>
			</g>
		</g>
		<g id="XMLID_327_">
			<path class="st3" d="M336.9,246.6H164c-7.4,0-13.4-6-13.4-13.4v-101c0-7.4,6-13.4,13.4-13.4h172.8c7.4,0,13.4,6,13.4,13.4v101
				C350.3,240.6,344.2,246.6,336.9,246.6z M164,126.8c-3,0-5.4,2.4-5.4,5.4v83.1c0,3,2.4,5.4,5.4,5.4h172.8c3,0,5.4-2.4,5.4-5.4
				v-83.1c0-3-2.4-5.4-5.4-5.4H164z"/>
		</g>
		<path class="st13" d="M332.7,224.2l0.4-1.7c1.1-4.8-0.5-9.8-4-13.1v0c-3.6-3.3-8.7-4.5-13.3-3l-0.8,0.3l10.3,9.6l-1.6,6.9
			l-6.7,2.1l-10.3-9.6l-0.2,0.8c-1.1,4.8,0.5,9.8,4,13.1l0,0c3.6,3.3,8.7,4.5,13.3,3l1.7-0.5l15.1,14c3.6-1,6.6-3.6,8.3-6.9
			L332.7,224.2z"/>
		<g>
			<path class="st4" d="M336.9,124.8H164c-3,0-5.4,2.4-5.4,5.4v2c0-3,2.4-5.4,5.4-5.4h172.8c3,0,5.4,2.4,5.4,5.4v-2
				C342.2,127.2,339.8,124.8,336.9,124.8z"/>
			<path class="st4" d="M336.9,244.6H164c-7.4,0-13.4-6-13.4-13.4v2c0,7.4,6,13.4,13.4,13.4h172.8c7.4,0,13.4-6,13.4-13.4v-2
				C350.3,238.6,344.2,244.6,336.9,244.6z"/>
		</g>
		<path class="st10" d="M333.5,131.2c0,1.1-0.9,2-2,2c-1.1,0-2-0.9-2-2c0-1.1,0.9-2,2-2C332.6,129.2,333.5,130.1,333.5,131.2z"/>
		<path class="st8" d="M326.5,131.2c0,1.1-0.9,2-2,2s-2-0.9-2-2c0-1.1,0.9-2,2-2S326.5,130.1,326.5,131.2z"/>
		<path class="st11" d="M319.5,131.2c0,1.1-0.9,2-2,2s-2-0.9-2-2c0-1.1,0.9-2,2-2S319.5,130.1,319.5,131.2z"/>
	</g>
	<g>
		<polygon class="st0" points="144.8,274.5 188.1,172.6 182.2,170 137.8,274.5 		"/>
		<path class="st0" d="M145.1,191.5L145.1,191.5c0-1.8,1.4-3.2,3.2-3.2H176v6.5h-27.7C146.5,194.7,145.1,193.3,145.1,191.5z"/>
		
			<rect x="148.5" y="199.1" transform="matrix(-1.836970e-16 1 -1 -1.836970e-16 366.2913 62.7661)" class="st0" width="6.5" height="30.8"/>
		
			<rect x="139" y="221.8" transform="matrix(-1.836970e-16 1 -1 -1.836970e-16 379.7336 95.3373)" class="st0" width="6.5" height="31.5"/>
		
			<rect x="129.2" y="245.3" transform="matrix(-1.836970e-16 1 -1 -1.836970e-16 392.9455 128.139)" class="st0" width="6.5" height="30.5"/>
	</g>
	<g>
		<path class="st14" d="M370.6,266.2l-34.5-49l0.7-1.6c2.1-4.4,1.6-9.6-1.2-13.6c-2.8-4-7.5-6.2-12.4-5.8l-0.9,0.1l8.1,11.5l-3,6.4
			l-7,0.6l-8.1-11.5l-0.4,0.8c-2.1,4.4-1.6,9.6,1.2,13.6c2.8,4,7.5,6.2,12.4,5.8l1.7-0.2l34.5,49c1.7,2.4,5,3,7.4,1.3
			S372.3,268.6,370.6,266.2z"/>
		<path class="st3" d="M365.4,268.1L365.4,268.1c-1.2,0.8-2.8,0.5-3.7-0.6l-28.9-41.1c-0.8-1.2-0.5-2.8,0.6-3.7l0,0
			c1.2-0.8,2.8-0.5,3.7,0.6l28.9,41.1C366.9,265.6,366.6,267.3,365.4,268.1z"/>
	</g>
</g>
<g>
	<path class="st15" d="M249.1,289.6h31.7c0.5,0,1.1,0,1.6,0.1c10.8,1.1,18,11.8,15.4,22.3l-13,60.4h-18.7l9-57.3h-26.1V289.6z"/>
	<path class="st16" d="M266.3,372.4h15.6c0,0,16.6,1.6,16.6,12.5h-32.1V372.4z"/>
	<path class="st15" d="M250.9,289.6h-31.7c-0.5,0-1.1,0-1.6,0.1c-10.8,1.1-18,11.8-15.4,22.3l13,60.4h18.7l-9-57.3h26.1V289.6z"/>
	<path class="st17" d="M277.2,372.4c0.1-0.2,0.1-0.4,0.2-0.6c2.2-7.1,4.2-24.1,6.2-31.3c2.2-7.7,4.2-15.4,5.7-23.2
		c0.3-1.6,0.6-3.2,0.8-4.8c0.1-0.7,0.2-1.2,0.2-1.4c0.1-0.8,0.2-1.7,0.3-2.5c0-0.2,0-0.4,0.1-0.6h-41.5v7.2h26.1l-9,57.3H277.2z"/>
	<path class="st17" d="M250.9,307.9H211c0.2,0.8,0.4,1.6,0.6,2.4c1.8,6.9,4,13.7,6.3,20.4c2.2,6.6,4.5,13.2,6.2,19.9
		c1,4,1.7,17.8,2.7,21.7h7l-9-57.3h26.1V307.9z"/>
	<g id="XMLID_534_">
		<g id="XMLID_535_">
			<g id="XMLID_537_">
				<g id="XMLID_570_">
					<path id="XMLID_573_" class="st18" d="M231.7,183.8c0,0-4-6.3-8.5-2.8c-4.5,3.4,0.3,15.8,8.5,13.8L231.7,183.8z"/>
					<path id="XMLID_572_" class="st19" d="M231.7,187.9l0,5.6c-7,0.6-10.1-9.4-6.7-10.5C227.7,182.3,230.5,186,231.7,187.9z"/>
					<path id="XMLID_571_" class="st20" d="M223.7,185c0,0,0,0,0-0.1c0-0.1,0.1-0.2,0.1-0.3c0.1-0.3,0.3-0.7,0.7-0.9
						c0.1-0.1,0.2-0.1,0.3-0.2c0.1,0,0.1,0,0.2-0.1l0,0l0,0c0,0,0,0,0,0l0,0l0,0l0,0l0.1,0c0.1,0,0.1,0,0.2,0c0.1,0,0.1,0,0.2,0
						c0.1,0,0.1,0,0.2,0c0.1,0,0.1,0,0.2,0c0.6,0.1,1.1,0.4,1.7,0.7c0.3,0.2,0.5,0.4,0.8,0.6c0.3,0.2,0.5,0.4,0.7,0.6
						c0.5,0.4,0.9,0.9,1.2,1.2c0.7,0.8,1.2,1.3,1.2,1.3s-0.1-0.2-0.2-0.5c-0.1-0.3-0.3-0.7-0.6-1.2c-0.1-0.2-0.3-0.5-0.5-0.7
						c-0.2-0.3-0.4-0.5-0.6-0.8c-0.4-0.5-1-1-1.6-1.4c-0.3-0.2-0.7-0.4-1-0.5c-0.4-0.1-0.7-0.2-1.1-0.3c-0.1,0-0.2,0-0.3,0
						c-0.1,0-0.2,0-0.3,0c-0.1,0-0.2,0-0.3,0c-0.1,0-0.2,0-0.2,0.1l-0.1,0l-0.1,0l-0.1,0c-0.1,0-0.2,0.1-0.2,0.1
						c-0.1,0.1-0.3,0.2-0.4,0.3c-0.2,0.2-0.3,0.5-0.4,0.7c-0.1,0.2-0.1,0.4-0.1,0.6c0,0.2,0,0.3,0,0.4
						C223.7,185,223.7,185,223.7,185z"/>
				</g>
				<g id="XMLID_566_">
					<path id="XMLID_569_" class="st18" d="M273.8,187.4c0,0,5-5.5,8.9-1.3c3.9,4.2-3,15.5-10.8,12.1L273.8,187.4z"/>
					<path id="XMLID_568_" class="st19" d="M273.1,191.5l-1,5.6c6.8,1.8,11.5-7.6,8.4-9.2C278.1,186.6,274.6,189.8,273.1,191.5z"/>
					<path id="XMLID_567_" class="st20" d="M281.5,190c0,0,0,0,0-0.1c0-0.1,0-0.2-0.1-0.3c-0.1-0.3-0.2-0.7-0.5-1
						c-0.1-0.1-0.2-0.1-0.3-0.2c-0.1,0-0.1-0.1-0.2-0.1l0,0l0,0c0,0,0,0,0,0l0,0l0,0l0,0l-0.1,0c-0.1,0-0.1,0-0.2-0.1
						c-0.1,0-0.1,0-0.2,0c-0.1,0-0.1,0-0.2,0c-0.1,0-0.1,0-0.2,0c-0.6,0-1.2,0.2-1.8,0.4c-0.3,0.1-0.6,0.3-0.9,0.4
						c-0.3,0.2-0.6,0.3-0.8,0.5c-0.5,0.4-1,0.7-1.4,1c-0.8,0.6-1.4,1.1-1.4,1.1s0.1-0.2,0.3-0.4c0.2-0.3,0.4-0.6,0.8-1
						c0.2-0.2,0.4-0.4,0.6-0.6c0.2-0.2,0.5-0.4,0.7-0.7c0.5-0.4,1.1-0.8,1.8-1.2c0.3-0.1,0.7-0.3,1.1-0.3c0.4-0.1,0.8-0.1,1.1-0.1
						c0.1,0,0.2,0,0.3,0c0.1,0,0.2,0,0.3,0.1c0.1,0,0.2,0.1,0.3,0.1c0.1,0,0.2,0.1,0.2,0.1l0.1,0.1l0.1,0l0.1,0
						c0.1,0,0.1,0.1,0.2,0.2c0.1,0.1,0.2,0.2,0.3,0.4c0.2,0.3,0.2,0.5,0.3,0.7c0,0.2,0,0.4,0,0.6c0,0.2,0,0.3-0.1,0.4
						C281.5,190,281.5,190,281.5,190z"/>
				</g>
				<path id="XMLID_565_" class="st18" d="M245.2,203.8l11.4,0c0,0,0.5,17.9,0.5,17.9c0,0-0.8,3.6-5.9,3.7c-5.1,0.1-6.3-3.6-6.3-3.6
					C244.9,221.6,245.2,203.8,245.2,203.8z"/>
				<path id="XMLID_14_" class="st20" d="M245.2,203.8l11.4,0c0,0,0.5,17.9,0.5,17.9c0,0-0.8,3.6-5.9,3.7c-5.1,0.1-6.3-3.6-6.3-3.6
					C244.9,221.6,245.2,203.8,245.2,203.8z"/>
				<path id="XMLID_563_" class="st20" d="M245.9,206.6l11.4,1c0,0-0.1,2.3-0.1,4.2c0,0.3-3.3,0.5-3.7,0.5c-2.8,0.2-5.5-0.4-8.2-1.3
					C245.6,209,245.9,206.6,245.9,206.6z"/>
				<path id="XMLID_561_" class="st20" d="M229.3,178.5c1-7.9,5-15.1,13.1-17.5c4.1-1.2,8.5-1.3,12.8-0.8c4.2,0.4,8.7,1.1,12.5,3
					c6.8,3.3,5.5,6.9,5.6,14.2c0,0.7,4.5,4.6,4.4,5.3c-0.1,1.6-0.1,3.3-0.3,4.9c-0.5,3.7-1.4,7.3-2.9,10.7
					c-1.8,4.1-4.6,7.8-8.4,10.4c-2.1,1.5-4.6,2.5-7.1,3.2c-4.2,1.1-8.1,1.2-12.2,0.1c-2.8-0.8-5.5-2-7.9-3.6
					c-4-2.8-6.8-6.8-8.4-11.3c-1.3-3.8-1.8-7.8-1.8-11.8c0-2.2,0.2-4.4,0.6-6.5C229.3,178.6,229.3,178.6,229.3,178.5z"/>
				<g id="XMLID_538_">
					<path id="XMLID_539_" class="st20" d="M228.9,178.7c0,0-0.1-3.1,0.2-7.1C228.8,175.7,228.9,178.7,228.9,178.7z"/>
				</g>
				<path id="XMLID_574_" class="st21" d="M233.4,162.5c7.2-10.8,45.5-14,48,22.3c1.8,26.4-28.1,29.7-42.5,23.5
					C214.4,197.7,226.2,173.3,233.4,162.5z"/>
			</g>
			<path id="XMLID_536_" class="st21" d="M228.5,189.6c0,0-3.4-1-5.3-8.7c-1.3-5.2,0.2-16.2,6.6-21.5c3.8-3.1,4.8-1.7,4.8-1.7
				s1-3.7,8.1-6.8c23.4-10.1,29.4,0.9,32.7,10c4.5,12.4,2.3,21.7-22.2,13.7c-9.9-3.2-16.2-4.8-16.2-4.8s0.1,3.2-1.9,7.7
				c-2,4.5-6.7,9.5-6.7,9.5"/>
		</g>
	</g>
	<path class="st12" d="M294.9,259.5l-13.7-31.1c-2-4.5-7.2-7.4-13.1-7.4h-16.3H250h-16.3c-5.9,0-11.1,3-13.1,7.4L207,259.5
		c-3.2,7.2,3.5,14.8,13.1,14.8h30h1.8h30C291.4,274.3,298.1,266.7,294.9,259.5z"/>
	<path class="st22" d="M271.2,306.8h-39.8c-7.8,0-14.1-6.3-14.1-14.1v-52.2c0-7.8,6.3-14.1,14.1-14.1h39.8c7.8,0,14.1,6.3,14.1,14.1
		v52.2C285.3,300.5,279,306.8,271.2,306.8z"/>
	<path class="st2" d="M267.9,301.9h-33.2c-7.8,0-14.1-6.3-14.1-14.1v-47.3c0-7.8,6.3-14.1,14.1-14.1h33.2c7.8,0,14.1,6.3,14.1,14.1
		v47.3C282,295.6,275.7,301.9,267.9,301.9z"/>
	<path class="st22" d="M266.9,217.2h-33.2c-7.8,0-14.1-6.3-14.1-14.1v-11.7c0-7.8,6.3-14.1,14.1-14.1h33.2c7.8,0,14.1,6.3,14.1,14.1
		v11.7C281,210.9,274.7,217.2,266.9,217.2z"/>
	<path class="st2" d="M265.8,213.8h-31c-6.3,0-11.4-5.1-11.4-11.4v-12.2c0-6.3,5.1-11.4,11.4-11.4h31c6.3,0,11.4,5.1,11.4,11.4v12.2
		C277.1,208.7,272.1,213.8,265.8,213.8z"/>
	<ellipse class="st2" cx="250" cy="317.4" rx="39.8" ry="9.4"/>
	<path class="st22" d="M219.6,311.4c7.3,0.8,18.2,1.3,30.4,1.3c12.2,0,23.1-0.5,30.4-1.3c-7.3-2-18.2-3.3-30.4-3.3
		C237.8,308.1,226.9,309.4,219.6,311.4z"/>
	<path class="st23" d="M210.9,319.3c3.6,4.3,19.7,7.5,39,7.5s35.4-3.2,39-7.5H210.9z"/>
	<path class="st8" d="M255.8,373.3h-11.7v-95.7c0-3.2,2.6-5.8,5.8-5.8l0,0c3.2,0,5.8,2.6,5.8,5.8V373.3z"/>
	<path class="st8" d="M254.1,273.2h-8.2v-82c0-2.3,1.8-4.1,4.1-4.1l0,0c2.3,0,4.1,1.8,4.1,4.1V273.2z"/>
	<path class="st16" d="M233.8,372.4h-15.6c0,0-16.6,1.6-16.6,12.5h32.1V372.4z"/>
	<g>
		<g>
			<path class="st8" d="M249.5,325.4c-0.2,0-16.4,1.4-34.2-3.9c-12.8-3.8-11.2-30.3-9.1-42.9c5-0.2,8.9-1.3,8.9-2.7
				c0-1.5-4.7-2.7-10.5-2.7c-5.8,0-10.5,1.2-10.5,2.7c0,1.2,3.2,2.3,7.7,2.6c-1.6,9.9-5.1,41.4,12.1,46.5
				c12.2,3.6,23.6,4.3,30.2,4.3c3.5,0,5.7-0.2,6-0.2L249.5,325.4z"/>
		</g>
		<g>
			<path class="st8" d="M252.2,325.4c0.2,0,16.4,1.4,34.2-3.9c12.8-3.8,11.2-30.3,9.1-42.9c-5-0.2-8.9-1.3-8.9-2.7
				c0-1.5,4.7-2.7,10.5-2.7c5.8,0,10.5,1.2,10.5,2.7c0,1.2-3.2,2.3-7.7,2.6c1.6,9.9,5.1,41.4-12.1,46.5c-12.2,3.6-23.6,4.3-30.2,4.3
				c-3.5,0-5.7-0.2-6-0.2L252.2,325.4z"/>
		</g>
	</g>
	<path class="st8" d="M256.9,380.2c0,3.8-3.1,6.9-6.9,6.9c-3.8,0-6.9-3.1-6.9-6.9c0-3.8,3.1-6.9,6.9-6.9
		C253.8,373.3,256.9,376.4,256.9,380.2z"/>
	<path class="st8" d="M256.9,274.3c0,3.8-3.1,6.9-6.9,6.9c-3.8,0-6.9-3.1-6.9-6.9c0-3.8,3.1-6.9,6.9-6.9
		C253.8,267.4,256.9,270.5,256.9,274.3z"/>
	<g>
		<path class="st8" d="M234.2,380.2c0,3.8-3.1,6.9-6.9,6.9c-3.8,0-6.9-3.1-6.9-6.9c0-3.8,3.1-6.9,6.9-6.9
			C231.1,373.3,234.2,376.4,234.2,380.2z"/>
		<path class="st8" d="M279.5,380.2c0,3.8-3.1,6.9-6.9,6.9c-3.8,0-6.9-3.1-6.9-6.9c0-3.8,3.1-6.9,6.9-6.9
			C276.4,373.3,279.5,376.4,279.5,380.2z"/>
	</g>
	<rect x="229.2" y="372.4" class="st8" width="41.6" height="4.8"/>
</g>
</svg>
